<!DOCTYPE svg PUBLIC "-//W3C//DTD SVG 1.1//EN" "http://www.w3.org/Graphics/SVG/1.1/DTD/svg11.dtd">
<!-- Uploaded to: SVG Repo, www.svgrepo.com, Transformed by: SVG Repo Mixer Tools -->
<svg height="256px" width="256px" version="1.1" id="Layer_1" xmlns="http://www.w3.org/2000/svg" xmlns:xlink="http://www.w3.org/1999/xlink" viewBox="-51.2 -51.2 614.40 614.40" xml:space="preserve" fill="#000000" transform="matrix(1, 0, 0, 1, 0, 0)rotate(0)" stroke="#000000" stroke-width="0.00512">
<g id="SVGRepo_bgCarrier" stroke-width="0" transform="translate(0,0), scale(1)">
<path transform="translate(-51.2, -51.2), scale(38.4)" fill="#5d91a2" d="M9.166.33a2.25 2.25 0 00-2.332 0l-5.25 3.182A2.25 2.25 0 00.5 5.436v5.128a2.25 2.25 0 001.084 1.924l5.25 3.182a2.25 2.25 0 002.332 0l5.25-3.182a2.25 2.25 0 001.084-1.924V5.436a2.25 2.25 0 00-1.084-1.924L9.166.33z" strokewidth="0"/>
</g>
<g id="SVGRepo_tracerCarrier" stroke-linecap="round" stroke-linejoin="round" stroke="#CCCCCC" stroke-width="3.072"/>
<g id="SVGRepo_iconCarrier"> <path style="fill:#3c4572;" d="M495.304,512H16.696C7.479,512,0,504.521,0,495.304V16.696C0,7.479,7.479,0,16.696,0h478.609 C504.521,0,512,7.479,512,16.696v478.609C512,504.521,504.521,512,495.304,512z"/> <path style="fill:#0a485c;" d="M495.304,0H256v512h239.304c9.217,0,16.696-7.479,16.696-16.696V16.696 C512,7.479,504.521,0,495.304,0z"/> <path style="fill:#ffffff;" d="M183.652,445.217H139.13c-21.478,0-38.957-17.478-38.957-38.957V296.304l-28.499-28.499 c-6.521-6.521-6.521-17.087,0-23.609l28.499-28.501V105.739c0-21.478,17.478-38.957,38.957-38.957h44.522 c9.217,0,16.696,7.479,16.696,16.696s-7.479,16.696-16.696,16.696H139.13c-3.065,0-5.565,2.5-5.565,5.565v116.87 c0,4.424-1.761,8.674-4.892,11.804L107.087,256l21.587,21.587c3.13,3.13,4.891,7.379,4.891,11.804v116.87 c0,3.065,2.5,5.565,5.565,5.565h44.522c9.217,0,16.696,7.479,16.696,16.696C200.348,437.739,192.869,445.217,183.652,445.217z"/> <path style="fill:#FFE6B3;" d="M372.87,445.217h-44.522c-9.217,0-16.696-7.479-16.696-16.696c0-9.217,7.479-16.696,16.696-16.696 h44.522c3.065,0,5.565-2.5,5.565-5.565v-116.87c0-4.424,1.761-8.674,4.892-11.804L404.913,256l-21.587-21.587 c-3.13-3.13-4.891-7.379-4.891-11.804v-116.87c0-3.065-2.5-5.565-5.565-5.565h-44.522c-9.217,0-16.696-7.479-16.696-16.696 s7.479-16.696,16.696-16.696h44.522c21.478,0,38.957,17.478,38.957,38.957v109.956l28.499,28.499c6.521,6.521,6.521,17.087,0,23.609 l-28.499,28.501v109.956C411.826,427.739,394.348,445.217,372.87,445.217z"/> </g>
</svg>